<?xml version="1.0" encoding="UTF-8" standalone="no"?>
<!-- Created with Inkscape (http://www.inkscape.org/) -->

<svg
   width="92.637276mm"
   height="88.707764mm"
   viewBox="0 0 92.637276 88.707764"
   version="1.1"
   id="svg1"
   xml:space="preserve"
   inkscape:version="1.4 (86a8ad7, 2024-10-11)"
   sodipodi:docname="about_icon_2.svg"
   xmlns:inkscape="http://www.inkscape.org/namespaces/inkscape"
   xmlns:sodipodi="http://sodipodi.sourceforge.net/DTD/sodipodi-0.dtd"
   xmlns="http://www.w3.org/2000/svg"
   xmlns:svg="http://www.w3.org/2000/svg"><sodipodi:namedview
     id="namedview1"
     pagecolor="#505050"
     bordercolor="#eeeeee"
     borderopacity="1"
     inkscape:showpageshadow="0"
     inkscape:pageopacity="0"
     inkscape:pagecheckerboard="0"
     inkscape:deskcolor="#505050"
     inkscape:document-units="mm"
     inkscape:zoom="1.4520903"
     inkscape:cx="386.3396"
     inkscape:cy="631.15907"
     inkscape:window-width="1920"
     inkscape:window-height="1017"
     inkscape:window-x="-8"
     inkscape:window-y="-8"
     inkscape:window-maximized="1"
     inkscape:current-layer="layer4"><inkscape:page
       x="-1.0722132e-13"
       y="0"
       width="92.637268"
       height="88.707764"
       id="page2"
       margin="0"
       bleed="0" /></sodipodi:namedview><defs
     id="defs1" /><g
     inkscape:groupmode="layer"
     id="layer4"
     inkscape:label="about_icon"
     transform="translate(-65.739642,-102.04907)"><path
       id="path1"
       style="fill:#f5fffa;fill-opacity:1;stroke:none;stroke-width:0.490904;stroke-linejoin:round"
       d="m 112.05828,102.04907 c -11.18889,-4e-5 -20.259287,10.35488 -20.259252,23.1283 -3.5e-5,12.77343 9.070362,23.12835 20.259252,23.12831 11.18889,4e-5 20.25928,-10.35488 20.25924,-23.12831 4e-5,-12.77343 -9.07035,-23.12834 -20.25924,-23.1283 z m -19.472077,44.99312 c -15.534954,9.65706 -24.874366,23.01497 -26.813764,40.26834 -0.247999,2.20625 0.945656,3.00154 2.394119,3.00654 l 43.891722,0.43976 43.89171,-0.43976 c 1.44847,-0.005 2.64212,-0.80029 2.39413,-3.00654 -1.9394,-17.25337 -11.27881,-30.61128 -26.81377,-40.26834 -6.38423,6.62025 -12.92817,9.93014 -19.47207,9.93014 -6.5439,0 -13.087843,-3.30989 -19.472077,-9.93014 z"
       inkscape:export-filename="C:\Users\Alekz\Pictures\about_icon.png"
       inkscape:export-xdpi="96"
       inkscape:export-ydpi="96" /></g></svg>
