<?xml version="1.0" encoding="UTF-8" standalone="no"?>
<!-- Created with Inkscape (http://www.inkscape.org/) -->

<svg
   width="135.77997mm"
   height="107.98157mm"
   viewBox="0 0 135.77997 107.98157"
   version="1.1"
   id="svg1"
   xml:space="preserve"
   inkscape:version="1.4 (86a8ad7, 2024-10-11)"
   sodipodi:docname="home_icon.svg"
   xmlns:inkscape="http://www.inkscape.org/namespaces/inkscape"
   xmlns:sodipodi="http://sodipodi.sourceforge.net/DTD/sodipodi-0.dtd"
   xmlns="http://www.w3.org/2000/svg"
   xmlns:svg="http://www.w3.org/2000/svg"><sodipodi:namedview
     id="namedview1"
     pagecolor="#505050"
     bordercolor="#eeeeee"
     borderopacity="1"
     inkscape:showpageshadow="0"
     inkscape:pageopacity="0"
     inkscape:pagecheckerboard="0"
     inkscape:deskcolor="#505050"
     inkscape:document-units="mm"
     inkscape:zoom="1.0267829"
     inkscape:cx="382.74886"
     inkscape:cy="505.9492"
     inkscape:window-width="1920"
     inkscape:window-height="1017"
     inkscape:window-x="-8"
     inkscape:window-y="-8"
     inkscape:window-maximized="1"
     inkscape:current-layer="layer2"><inkscape:page
       x="0"
       y="0"
       width="135.77997"
       height="107.98157"
       id="page2"
       margin="0"
       bleed="0" /></sodipodi:namedview><defs
     id="defs1" /><g
     inkscape:groupmode="layer"
     id="layer2"
     inkscape:label="home_btn"
     transform="translate(-41.070682,-70.218453)"><path
       id="path2"
       style="fill:#f5fffa;fill-opacity:1;stroke:none;stroke-width:0.499999;stroke-linejoin:round;stroke-opacity:1"
       d="m 175.7903,122.78527 c 1.39889,1.16725 1.3388,2.67585 0.25787,3.99407 l -5.28237,6.44199 c -1.05237,1.28338 -2.67032,0.71388 -3.99407,-0.38654 L 108.96079,84.777254 51.149849,132.83479 c -1.323748,1.10042 -2.941702,1.66992 -3.994071,0.38654 l -5.282365,-6.44199 c -1.080936,-1.31822 -1.141541,-2.82682 0.257349,-3.99407 L 102.04183,72.79504 c 1.78888,-1.492655 4.06609,-2.385745 6.91896,-2.576587 2.85287,0.190842 5.12956,1.083932 6.91844,2.576587 l 19.91909,16.567728 V 73.052807 c 0,-1.416601 1.16022,-2.57682 2.57682,-2.57682 h 16.51924 c 1.26283,0 2.42037,1.068661 2.42037,2.57682 V 107.35042 Z M 108.96079,92.015572 60.493465,132.10098 v 40.99698 c 0,1.67964 1.877696,5.11672 4.554761,5.10202 l 33.162317,-0.18242 v -32.25075 h 10.750247 10.75025 v 32.25075 l 33.1618,0.18242 c 2.67706,0.0147 4.55528,-3.42238 4.55528,-5.10202 v -40.99698 z"
       sodipodi:nodetypes="cssccccccscccssssccccscccccccscc"
       inkscape:export-filename="C:\Users\Alekz\Pictures\home_icon.png"
       inkscape:export-xdpi="96"
       inkscape:export-ydpi="96" /></g></svg>
