<?xml version="1.0" encoding="UTF-8" standalone="no"?>
<!-- Created with Inkscape (http://www.inkscape.org/) -->

<svg
   width="106.74756mm"
   height="99.75032mm"
   viewBox="0 0 106.74756 99.75032"
   version="1.1"
   id="svg1"
   xml:space="preserve"
   xmlns:inkscape="http://www.inkscape.org/namespaces/inkscape"
   xmlns:sodipodi="http://sodipodi.sourceforge.net/DTD/sodipodi-0.dtd"
   xmlns="http://www.w3.org/2000/svg"
   xmlns:svg="http://www.w3.org/2000/svg"><sodipodi:namedview
     id="namedview1"
     pagecolor="#505050"
     bordercolor="#eeeeee"
     borderopacity="1"
     inkscape:showpageshadow="0"
     inkscape:pageopacity="0"
     inkscape:pagecheckerboard="0"
     inkscape:deskcolor="#505050"
     inkscape:document-units="mm"><inkscape:page
       x="0"
       y="0"
       width="106.74756"
       height="99.75032"
       id="page2"
       margin="0"
       bleed="0" /></sodipodi:namedview><defs
     id="defs1" /><g
     inkscape:groupmode="layer"
     id="layer2"
     inkscape:label="Draw"
     style="display:inline"
     inkscape:export-filename="logo.png"
     inkscape:export-xdpi="96"
     inkscape:export-ydpi="96"
     transform="translate(-0.74574979,-0.65010848)"><circle
       style="fill:#98fb98;fill-opacity:1;stroke:#212121;stroke-width:0.225298;stroke-dasharray:none;stroke-opacity:1"
       id="path22"
       cx="50.585716"
       cy="49.888077"
       r="42.07753" /><path
       id="path9"
       style="fill:#212121;fill-opacity:1;stroke:#212121;stroke-width:0.2;stroke-opacity:1"
       d="M 29.725766,0.75419269 C 18.793028,0.26866869 19.845176,42.885663 18.235511,59.810023 c -1.059995,16.34705 -3.885061,23.15049 -17.23615682,24.90959 5.10285302,3.88645 11.26415082,1.39909 16.50700282,-4.93097 0.591973,2.60468 -0.937274,10.99786 -2.07946,16.60829 -0.739057,2.22419 -1.402188,6.868167 4.030762,1.18391 1.134399,-4.793 1.853319,-15.54928 3.546553,-22.19658 0.735235,-2.88638 9.110555,-2.36833 9.110555,-2.36833 3.220203,-0.0761 9.842592,2.14764 12.572359,4.09928 2.834193,2.0263 5.205033,4.16923 8.017083,7.37961 4.54698,5.19107 13.89846,15.44891 34.28524,15.756137 15.186251,0.22886 21.048961,-9.328307 20.347081,-12.340847 -1.81565,-0.66385 -2.65208,4.53867 -11.266491,5.78621 -8.61441,1.24754 -12.54717,0.48372 -19.49649,-1.18442 -6.94932,-1.66814 -17.26438,-10.4532 -23.24487,-16.40932 -5.980491,-5.95612 -18.209188,-8.82507 -18.107641,-8.31734 9.929491,-4.37505 20.299691,-10.28632 28.355891,-15.69155 4.96987,5.16957 9.93981,8.53741 14.90968,7.43831 l -11.54864,-9.76116 c 0.28923,-0.20615 0.60889,-0.42078 0.88935,-0.62425 16.62104,-12.53202 30.28862,-28.10744 27.92232,-32.700334 -2.36631,-4.592895 -6.66127,-4.610084 -14.58412,-3.750676 -7.92284,0.859407 -18.38129,0.215686 -31.923115,-3.8173383 6.310995,6.2940183 10.580345,10.7911313 32.797485,11.2969853 -7.44405,9.537513 -15.43855,16.837253 -23.30866,22.628073 -3.81882,-3.05659 -8.32816,-6.20445 -10.582298,-6.59391 3.482098,2.79445 6.083578,5.47938 8.470798,8.13697 -10.899644,7.67391 -21.437778,12.4992 -29.789394,16.27911 C 35.169853,34.485233 39.130161,1.1718427 29.725766,0.75419269 Z M 29.219337,8.1294537 c 1.317273,-0.121036 -1.079215,20.1628593 -2.517676,21.2415993 -1.56969,1.17716 0.843404,-20.3482073 2.452047,-21.2204123 0.0228,-0.01239 0.04472,-0.01929 0.06563,-0.02119 z"
       sodipodi:nodetypes="scccccscssscsszcccccssccccccssscss" /></g></svg>
