<?xml version="1.0" encoding="UTF-8" standalone="no"?>
<!-- Created with Inkscape (http://www.inkscape.org/) -->

<svg
   width="43.912056mm"
   height="43.958042mm"
   viewBox="0 0 43.912056 43.958042"
   version="1.1"
   id="svg1"
   xml:space="preserve"
   inkscape:version="1.4 (86a8ad7, 2024-10-11)"
   sodipodi:docname="portfolio_icon.svg"
   inkscape:export-filename="C:\Users\Alekz\Pictures\portfolio_icon.svg"
   inkscape:export-xdpi="96"
   inkscape:export-ydpi="96"
   xmlns:inkscape="http://www.inkscape.org/namespaces/inkscape"
   xmlns:sodipodi="http://sodipodi.sourceforge.net/DTD/sodipodi-0.dtd"
   xmlns="http://www.w3.org/2000/svg"
   xmlns:svg="http://www.w3.org/2000/svg"><sodipodi:namedview
     id="namedview1"
     pagecolor="#505050"
     bordercolor="#eeeeee"
     borderopacity="1"
     inkscape:showpageshadow="0"
     inkscape:pageopacity="0"
     inkscape:pagecheckerboard="0"
     inkscape:deskcolor="#505050"
     inkscape:document-units="mm"
     showguides="false"
     inkscape:zoom="2.9041807"
     inkscape:cx="372.91068"
     inkscape:cy="519.07927"
     inkscape:window-width="1920"
     inkscape:window-height="1017"
     inkscape:window-x="-8"
     inkscape:window-y="-8"
     inkscape:window-maximized="1"
     inkscape:current-layer="layer3"><inkscape:page
       x="0"
       y="0"
       width="43.912056"
       height="43.958042"
       id="page2"
       margin="0"
       bleed="0" /></sodipodi:namedview><defs
     id="defs1" /><g
     inkscape:groupmode="layer"
     id="layer3"
     inkscape:label="portfolio_icon"
     transform="translate(-87.277879,-117.06883)"><path
       id="path3"
       style="fill:#f5fffa;fill-opacity:1;stroke:none;stroke-width:0.499999;stroke-linejoin:round;stroke-opacity:1"
       d="M 131.18993,157.63687 H 87.277876 m 17.036684,-40.56805 c -2.06486,0 -3.82664,2.08022 -3.82664,3.37086 v 5.46633 H 89.464307 c -1.228314,0 -2.18643,0.82524 -2.18643,2.00453 v 7.28844 c 0,2.77443 3.638043,6.01256 6.741707,6.01256 h 15.214576 15.21406 c 3.10367,0 6.74171,-3.23813 6.74171,-6.01256 v -7.28844 c 0,-1.17929 -0.95812,-2.00453 -2.18643,-2.00453 h -11.02362 v -5.46633 c 0,-1.29064 -1.76126,-3.37086 -3.82612,-3.37086 h -4.9196 z m 0.63769,4.37338 h 4.28191 4.28191 v 4.46381 h -4.28191 -4.28191 z m -17.674373,18.12964 v 19.76986 c 0,1.07901 0.938973,1.68516 2.050004,1.68516 h 19.906279 19.90628 c 1.11104,0 2.04949,-0.60615 2.04949,-1.68516 v -19.76986 c -1.82209,2.3839 -4.05036,4.05402 -6.74171,4.05402 h -12.98216 c 0,0 0.0153,2.94608 0,4.41885 -0.01,0.96396 -1.17949,2.09778 -2.2319,2.18643 -1.05241,-0.0887 -2.22242,-1.22247 -2.23242,-2.18643 -0.0153,-1.47277 0,-4.41885 0,-4.41885 H 94.019584 c -2.691349,0 -4.919621,-1.67012 -6.741707,-4.05402 z"
       inkscape:export-filename="C:\Users\Alekz\Pictures\path3.svg"
       inkscape:export-xdpi="96"
       inkscape:export-ydpi="96" /></g></svg>
