<?xml version="1.0" encoding="UTF-8" standalone="no"?>
<!-- Created with Inkscape (http://www.inkscape.org/) -->

<svg
   width="92.5382mm"
   height="97.598907mm"
   viewBox="0 0 92.5382 97.598907"
   version="1.1"
   id="svg1"
   xml:space="preserve"
   inkscape:version="1.4 (86a8ad7, 2024-10-11)"
   sodipodi:docname="resume.svg"
   xmlns:inkscape="http://www.inkscape.org/namespaces/inkscape"
   xmlns:sodipodi="http://sodipodi.sourceforge.net/DTD/sodipodi-0.dtd"
   xmlns="http://www.w3.org/2000/svg"
   xmlns:svg="http://www.w3.org/2000/svg"><sodipodi:namedview
     id="namedview1"
     pagecolor="#505050"
     bordercolor="#eeeeee"
     borderopacity="1"
     inkscape:showpageshadow="0"
     inkscape:pageopacity="0"
     inkscape:pagecheckerboard="0"
     inkscape:deskcolor="#505050"
     inkscape:document-units="mm"
     inkscape:zoom="0.51339147"
     inkscape:cx="175.30482"
     inkscape:cy="717.77586"
     inkscape:window-width="1920"
     inkscape:window-height="1017"
     inkscape:window-x="-8"
     inkscape:window-y="-8"
     inkscape:window-maximized="1"
     inkscape:current-layer="layer2"><inkscape:page
       x="0"
       y="0"
       width="92.5382"
       height="97.598907"
       id="page2"
       margin="0"
       bleed="0" /></sodipodi:namedview><defs
     id="defs1" /><g
     inkscape:groupmode="layer"
     id="layer2"
     inkscape:label="resume"
     transform="translate(-44.929374,-99.485402)"><path
       id="path1"
       style="display:inline;fill:#f5fffa;fill-opacity:1;stroke:none;stroke-width:0.149496;stroke-linejoin:round"
       d="m 69.056767,99.4854 c -3.524802,0 -5.465816,1.94181 -5.465816,5.46685 v 1.94148 l -14.297319,2.73885 c -3.36465,0.64461 -4.86247,2.85335 -4.21783,6.21823 l 14.7283,76.87644 c 0.5558,2.90115 2.576201,4.9159 6.217191,4.21835 l 30.042094,-5.7552 1.229899,-0.23565 h 3.235974 31.47199 c 3.81431,0 5.44291,-2.42718 5.46633,-5.46633 V 126.97261 L 110.66095,99.4854 h -10.13169 z m 0,5.46685 h 31.472493 7.79384 v 18.76733 c 0,3.18286 2.72761,5.55728 5.83066,5.55728 h 17.84749 v 56.21156 H 100.52926 69.056767 Z m 44.914573,5.9216 12.75477,12.84573 h -11.38793 c -0.90374,0 -1.36684,-0.34131 -1.36684,-1.09296 z m -50.380389,1.42989 v 71.95788 L 50.293054,114.85139 Z m 27.618469,1.46554 c -3.305757,-10e-6 -5.985691,3.25002 -5.985681,7.25951 -10e-6,4.00949 2.679924,7.26004 5.985681,7.26002 3.305758,2e-5 5.985689,-3.25053 5.985681,-7.26002 8e-6,-4.00949 -2.679923,-7.25952 -5.985681,-7.25951 z m -5.753137,14.12317 c -4.589802,3.03128 -7.349004,7.22383 -7.921998,12.63954 -0.07327,0.69253 0.279502,0.94255 0.707451,0.94413 l 12.967684,0.13798 12.96768,-0.13798 c 0.42796,-0.002 0.7807,-0.2516 0.70745,-0.94413 -0.57301,-5.41571 -3.33219,-9.60826 -7.921993,-12.63954 -1.886219,2.07804 -3.819741,3.11661 -5.753137,3.11661 -1.933395,0 -3.866916,-1.03857 -5.753137,-3.11661 z m -6.154664,28.32696 c -3.206527,0 -2.990607,5.53138 -0.06459,5.54023 h 21.292241 21.29224 c 2.92603,-0.009 3.14193,-5.54023 -0.0646,-5.54023 h -21.22765 z m 0,14.17226 c -3.206527,0 -2.990612,5.53138 -0.06459,5.54023 h 21.292241 21.29224 c 2.92603,-0.009 3.14194,-5.54023 -0.0646,-5.54023 h -21.22765 z m -14.852323,18.34978 c 0.845136,1.33963 2.334554,2.2133 4.607471,2.2133 l -4.035413,0.77308 z"
       inkscape:export-filename="C:\Users\Alekz\Pictures\resume.png"
       inkscape:export-xdpi="96"
       inkscape:export-ydpi="96" /></g></svg>
