<?xml version="1.0" encoding="UTF-8" standalone="no"?>
<!-- Created with Inkscape (http://www.inkscape.org/) -->

<svg
   width="68.230438mm"
   height="66.555206mm"
   viewBox="0 0 68.230438 66.555206"
   version="1.1"
   id="svg1"
   xml:space="preserve"
   inkscape:version="1.4 (86a8ad7, 2024-10-11)"
   sodipodi:docname="tooling_icon.svg"
   xmlns:inkscape="http://www.inkscape.org/namespaces/inkscape"
   xmlns:sodipodi="http://sodipodi.sourceforge.net/DTD/sodipodi-0.dtd"
   xmlns="http://www.w3.org/2000/svg"
   xmlns:svg="http://www.w3.org/2000/svg"><sodipodi:namedview
     id="namedview1"
     pagecolor="#505050"
     bordercolor="#eeeeee"
     borderopacity="1"
     inkscape:showpageshadow="0"
     inkscape:pageopacity="0"
     inkscape:pagecheckerboard="0"
     inkscape:deskcolor="#505050"
     inkscape:document-units="mm"
     inkscape:zoom="1.0267829"
     inkscape:cx="286.33121"
     inkscape:cy="618.92342"
     inkscape:window-width="1920"
     inkscape:window-height="1017"
     inkscape:window-x="-8"
     inkscape:window-y="-8"
     inkscape:window-maximized="1"
     inkscape:current-layer="layer2"><inkscape:page
       x="0"
       y="0"
       width="68.230438"
       height="66.555206"
       id="page2"
       margin="0"
       bleed="0" /></sodipodi:namedview><defs
     id="defs1" /><g
     inkscape:groupmode="layer"
     id="layer2"
     inkscape:label="tooling_icon"
     transform="translate(-54.994864,-152.50208)"><path
       id="path1"
       style="fill:#f5fffa;fill-opacity:1;stroke:none;stroke-width:0.488768;stroke-linejoin:round;stroke-opacity:1"
       d="m 115.2699,153.74393 c -0.14693,-0.16813 -0.38209,-0.30554 -0.67296,-0.39571 -5.17593,-1.60389 -9.73015,-0.98917 -13.13398,2.37268 -3.903573,3.85543 -4.791383,8.39872 -3.220893,13.08842 l -13.2357,12.69083 -13.235311,12.69046 c -4.619581,-1.76613 -9.196164,-1.06998 -13.212194,2.66817 -3.501882,3.25958 -4.307394,7.78395 -2.922379,13.0227 0.07786,0.29441 0.205276,0.53513 0.367096,0.68899 0.269694,0.25642 0.634825,0.27261 1.026254,-0.10271 l 6.218353,-5.96237 c 1.013115,-0.9714 2.207489,-0.72025 2.848257,-0.052 l 1.694896,1.76767 1.694902,1.76767 c 0.640768,0.66828 0.841509,1.87214 -0.171606,2.84355 l -6.218353,5.96237 c -0.626284,0.6005 -0.248832,1.17601 0.526871,1.41638 5.175949,1.6039 9.730499,0.98953 13.134333,-2.3723 3.903603,-3.85541 4.791396,-8.39873 3.220906,-13.08843 l 13.235315,-12.69044 13.235703,-12.69083 c 4.61958,1.76613 9.19615,1.06998 13.21218,-2.66817 3.50185,-3.25961 4.30705,-7.78431 2.92202,-13.02307 -0.20757,-0.78512 -0.76708,-1.18606 -1.39336,-0.58556 l -6.21799,5.96201 c -1.01311,0.97141 -2.20747,0.72026 -2.84824,0.052 l -1.6949,-1.76767 -1.6949,-1.76766 c -0.64077,-0.66828 -0.84152,-1.87214 0.17159,-2.84355 l 6.21799,-5.96201 c 0.39143,-0.37532 0.39099,-0.74119 0.1461,-1.0214 z m -25.049743,4.09991 c -0.075,-0.0834 -0.16597,-0.16351 -0.27419,-0.2404 l -3.49117,-2.5375 c -0.97782,-0.6949 -1.67723,-0.16791 -2.656548,0.77383 -2.943628,2.83062 -5.550655,2.4245 -6.902619,-1.23458 -0.570249,-1.54339 -1.014868,-2.23769 -2.073556,-2.04536 l -1.838106,0.33344 -1.838115,0.33417 c -1.058688,0.19233 -1.230888,0.99887 -1.221844,2.64421 0.02143,3.9008 -2.276151,5.19783 -6.027283,3.5834 -1.247971,-0.53711 -1.632786,-0.80162 -2.303703,0.19281 l -2.438858,3.61496 c -0.59396,0.88037 -0.526588,1.66899 0.339446,2.2304 3.620372,2.34693 2.465761,6.38501 -1.602853,7.03522 -0.791512,0.12651 -1.586253,0.63801 -1.440674,1.43936 l 0.460582,2.53593 0.460601,2.5352 c 0.145581,0.80135 1.069611,1.00162 1.855073,0.8416 4.037336,-0.82239 6.538518,2.5509 3.974969,6.02126 -0.613236,0.83015 -0.399273,1.59228 0.466389,2.20748 l 3.554647,2.52603 c 0.977818,0.6949 1.297255,0.36302 2.2248,-0.62976 2.550085,-2.72941 4.24289,-1.83756 5.78992,-1.01901 l 21.243082,-20.37286 -0.34563,-1.90159 c -0.15374,-0.79984 -0.92652,-0.98058 -1.71226,-0.82032 -3.64967,0.75196 -6.32683,-2.59002 -4.37853,-5.94861 0.45315,-0.78116 0.70144,-1.51575 0.17643,-2.09931 z m -8.2686,9.69441 c 0.936322,0.99821 1.631902,2.34388 2.086884,4.03719 0.452476,4.6537 -1.566897,7.59585 -6.057426,8.82642 -4.636416,0.42752 -7.56078,-1.61648 -8.774061,-6.13198 -0.452475,-4.65371 1.566178,-7.59588 6.0567,-8.82645 2.89776,-0.26719 5.127354,0.43115 6.687903,2.09482 z"
       inkscape:export-filename="C:\Users\Alekz\Pictures\tooling_icon.png"
       inkscape:export-xdpi="96"
       inkscape:export-ydpi="96" /></g></svg>
